<?xml version="1.0" encoding="UTF-8"?>
<svg id="Layer_4" data-name="Layer 4" xmlns="http://www.w3.org/2000/svg" viewBox="0 0 160 160">
  <defs>
    <style>
      .cls-1 {
        fill: #f2dca7;
      }

      .cls-2 {
        fill: #138f54;
      }

      .cls-3 {
        fill: #b05a27;
      }

      .cls-4 {
        fill: #0f7349;
      }

      .cls-5 {
        fill: #91c95d;
      }

      .cls-6 {
        fill: #231f20;
      }

      .cls-7 {
        fill: #0c100f;
      }

      .cls-8 {
        fill: #c4722a;
      }

      .cls-9 {
        fill: #67c8c9;
      }

      .cls-10 {
        fill: #e69d28;
      }

      .cls-11 {
        fill: #bc9762;
      }

      .cls-12 {
        fill: #b4a548;
      }

      .cls-13 {
        fill: #c9812b;
      }

      .cls-14 {
        fill: #9d4c24;
      }

      .cls-15 {
        fill: #ea7d25;
      }

      .cls-16 {
        fill: #cebc57;
      }

      .cls-17 {
        fill: #cf9660;
      }

      .cls-18 {
        fill: #13533a;
      }

      .cls-19 {
        fill: #4b2614;
      }

      .cls-20 {
        fill: #f8c576;
      }

      .cls-21 {
        fill: #45b059;
      }

      .cls-22 {
        fill: #4fb961;
      }

      .cls-23 {
        fill: #b9b351;
      }

      .cls-24 {
        fill: #783018;
      }

      .cls-25 {
        fill: #1a3f34;
      }

      .cls-26 {
        fill: #a9d15d;
      }

      .cls-27 {
        fill: #c7e8e7;
      }
    </style>
  </defs>
  <g id="Calandar">
    <g>
      <path class="cls-7" d="M127.42,34.17c-.04,2.64-1.6,5.77-4.1,6.99-3.41,1.66-7.46,1.47-10.86-.02-2.36-1.04-3.88-3.61-4.28-6.11-.28-1.71-.14-3.17-.18-4.71.34-.3.4-.95.21-1.4l.93-.09c-.18.02,3.1-1.42,3.39-1.19.46,1.62-.2,3.53.55,4.78.1.17-.04.38.13.54.13.11.29.35.52.22.17.74,1.01.96,1.45,1.4.96.97,2.37.99,3.69.75,1.92-.35,3.53-2.07,3.66-4.18.09-1.42.18-2.93.17-4.32.44-.07.79.15,1.2.34l3.39,1.6c-.37,1.98.16,3.78.13,5.42Z"/>
      <path class="cls-15" d="M119.85,13.74l.04,17.96c0,2.76-1.91,2.21-1.03,3.61-1.32.24-2.73.23-3.69-.75l-.03-19.59c0-.43.03-.73.17-1.01,1.44-.94,2.95-1.06,4.53-.23Z"/>
      <path class="cls-3" d="M122.7,26.82c.02,1.39-.08,2.9-.17,4.32-.13,2.11-1.74,3.82-3.66,4.18-.89-1.4,1.03-.85,1.03-3.61l-.04-17.96c1.5.78,2.7,2.12,2.73,4.05l.12,9.03Z"/>
      <path class="cls-20" d="M115.32,13.97c-.13.28-.17.59-.17,1.01l.03,19.59c-.43-.44-1.28-.66-1.45-1.4-.94-1.47-.78-3.29-.77-5.13l.03-9.97c0-2,.95-3.2,2.33-4.1Z"/>
    </g>
    <g>
      <path class="cls-7" d="M52.39,34.17c-.68,3.19-2.52,6.24-5.68,7.36-2.53.89-5.67.92-8.22,0-3.14-1.13-5.44-4.26-5.54-7.52l-.12-4.1.07-1.06c1.06.16,2.06-.11,3.16-.38.46-.11.96.05,1.56-.33.25.79-.29,4.48.9,4.42.17.94,1.12,1.28,1.68,1.79,1.04.96,2.39,1.01,3.79.73,1.82-.37,3.61-1.88,3.63-4l.13-11.42c.31-.17.84.42.86.84.14,4.21,3.52,5.22,3.53,6.13l.09,7.35c0,.18.07.24.17.2Z"/>
      <path class="cls-15" d="M44.86,13.77l.03,17.32c0,3.38-1.62,2.69-.91,3.98-1.41.29-2.75.23-3.79-.73.38-.05-.01-.48-.01-.8V14.62c0-.24.13-.47.12-.65,1.43-1.02,3.01-1.05,4.56-.2Z"/>
      <path class="cls-3" d="M47.75,19.65l-.13,11.42c-.02,2.12-1.81,3.63-3.63,4-.71-1.29.92-.6.91-3.98l-.03-17.32c2.54,1.39,2.92,2.91,2.89,5.88Z"/>
      <path class="cls-20" d="M40.3,13.97c0,.18-.13.41-.13.65v18.93c0,.32.39.75.02.8-.56-.52-1.51-.86-1.68-1.79-.61-1.19-.6-2.48-.58-3.9l.11-11.25c.02-1.69,1.16-2.64,2.27-3.43Z"/>
    </g>
    <g>
      <path class="cls-2" d="M151.99,28.67c1.47,1.37,2.38,3.42,2.38,5.5l.04,11.56-145.36-.12c.29-1.17.22-2.43.23-3.66,0-.22.14-.26.44-.26l28.78-.15c2.54.92,5.69.9,8.22,0,.04.26.27.19.63.19l56.13-.14,8.82-.2c.12,0,.21-.22.19-.24,3.4,1.49,7.45,1.68,10.86.02-.09.08.03.24.22.24,4.35-.01,8.56-.01,12.85-.45,4.66-.47,8.22-3.34,9.73-7.67.74-2.12.91-4.3,1.09-6.49,1.63.02,3.48.66,4.78,1.87Z"/>
      <path class="cls-5" d="M32.89,28.85l-.07,1.06h-12.71c-5.63.02-10.26,3.94-10.81,9.58-.09.88-.03,1.7-.04,2.45,0,1.22.06,2.49-.23,3.66l-3.58.02v-11.07c.02-2.39,1.09-4.85,2.96-6.32,1.46-1.15,3.65-1.57,5.55-1.57l18.87-.04.04,2.23Z"/>
      <path class="cls-22" d="M107.95,29.9c0,.15.05.27.05.42.04,1.55-.1,3.01.18,4.71.41,2.5,1.92,5.07,4.28,6.11.02.02-.06.24-.19.24l-8.82.2-56.13.14c-.36,0-.59.07-.63-.19,3.16-1.12,5-4.17,5.68-7.36l.15-.69c.25-1.17.05-2.38.12-3.55l55.29-.04Z"/>
      <path class="cls-22" d="M147.21,26.8c-.18,2.19-.35,4.37-1.09,6.49-1.51,4.33-5.07,7.2-9.73,7.67-4.3.43-8.5.43-12.85.45-.18,0-.31-.16-.22-.24,2.5-1.22,4.05-4.35,4.1-6.99l.05-7.59,19.74.22Z"/>
      <path class="cls-5" d="M107.95,29.9l-55.29.04c.06-1.05-.22-2.15-.04-3.32h55.3c.2,1.22.06,2.26.03,3.28Z"/>
      <path class="cls-22" d="M32.83,29.92l.12,4.1c.1,3.26,2.39,6.38,5.54,7.52l-28.78.15c-.3,0-.44.04-.44.26,0-.75-.05-1.57.04-2.45.54-5.65,5.17-9.56,10.81-9.57h12.71Z"/>
    </g>
    <path class="cls-25" d="M160,34.83c0-3.52-1.09-6.85-3.62-9.14-1.68-1.51-3.64-2.52-5.87-2.79-.25-.03-.55-.15-.87-.15l-22.11-.06-.05,3.9,19.74.22c1.63.02,3.48.66,4.78,1.87,1.47,1.37,2.38,3.42,2.38,5.5l.04,11.56-145.36-.12-3.58.02v-11.07c.02-2.39,1.09-4.85,2.96-6.32,1.46-1.15,3.65-1.57,5.55-1.57l18.87-.04-.09-3.93-22.78.08c-.98,0-1.89.42-2.72.77-1.59.28-3.01,1.41-4.13,2.67C.95,28.68,0,31.69,0,35.03l.17,105.15c0,5.79,5.67,10.07,10.96,10.06l138.46-.08c6.19,0,10.67-6.12,10.34-11.94-.05-.8.06-1.53.06-2.51V34.83Z"/>
    <g>
      <path class="cls-9" d="M154.45,127.35c.33,2.97.08,5.98.12,9.12-1.35-.4-2.37-.64-3.39-1.05l-16.43-6.56c-.93-.37-1.8-.55-2.67-1.01.85-.36,1.54-.41,2.21-.59-.18.09,0,.23.13.23,5.74-.09,9.3-2.82,13.65-2.07,2.28.39,4.33,1.2,6.38,1.93Z"/>
      <path class="cls-27" d="M154.41,125.94c.45.41,0,1,.04,1.41-2.06-.73-4.11-1.54-6.38-1.93-4.35-.75-7.91,1.98-13.65,2.07-.14,0-.31-.13-.13-.23l8.46-2.34c4.8-1.33,7.38-.43,11.66,1.01Z"/>
      <g>
        <path class="cls-17" d="M99.65,126.75c.73.4,1.43.99,2.42.83.06.05.07.16.03.18-.67.18-1.41.52-2.07.64-3.23.58-6.54,1.11-9.62,2.58l-6.28,3c-2.24,1.07-4.65,1.64-6.94,2.89l-3.99,2.17c5.69,1.8,8.45,1.09,13.98,1.09h25.54s25.89.12,25.89.12c3.85.02,10.25.66,13.04-1.93l-9.93-3.78c-.11-.06-.2-.14-.31-.18.09-.11.15-.29.13-.43l9.18,3.24c1.22.43,2.38,1.02,3.81,1.34.14,3.39-1.87,6.65-5.43,6.61l-11.89-.12-41.24.12-29.43-.02-12.1-.28c6.46-1.63,12.66-4.18,18.61-7.46l8.38-4.62c5.78-3.19,11.89-5.09,18.22-5.99Z"/>
        <path class="cls-20" d="M141.54,133.94c.01.14-.04.32-.13.43l-3.77-1.44c-2.73-1.04-5.22-2.23-7.92-3.22-5.66-2.08-11.4-2.73-17.33-2.89-3.52-.09-6.95.05-10.29.95.05-.03.04-.14-.03-.18-.99.16-1.69-.42-2.42-.83,11.99-1.69,22.9-1.05,34.31,3.9l7.57,3.28Z"/>
        <path class="cls-20" d="M141.71,134.55l9.93,3.78c-2.79,2.6-9.19,1.95-13.04,1.93l-25.89-.11h-25.54c-5.53-.02-8.29.7-13.98-1.1l3.99-2.17c2.29-1.25,4.7-1.82,6.94-2.89.31.95-2.79,1.96-3.11,3.04,2.1-.76,3.95-1.74,5.91-2.29l6.59-1.85c4.14-1.16,8.12-2.34,12.45-2.88,6.96-.87,13.81-.63,20.61,1.07l12.93,3.22c.79.2,1.6.49,2.2.25Z"/>
        <path class="cls-1" d="M141.4,134.37c.11.04.2.13.31.18-.6.24-1.41-.05-2.2-.25l-12.93-3.22c-6.8-1.7-13.65-1.94-20.61-1.07-4.33.54-8.31,1.72-12.45,2.88l-6.59,1.85c0-.08-.05-.27.09-.32,3.98-1.57,7.9-3.12,11.74-5,.53-.26.99-.59,1.27-1.01.66-.12,1.4-.46,2.07-.64,3.34-.9,6.78-1.04,10.29-.95,5.92.16,11.67.81,17.33,2.89,2.7.99,5.19,2.18,7.92,3.22l3.77,1.44Z"/>
        <path class="cls-20" d="M100.02,128.4c-.28.42-.74.75-1.27,1.01-3.84,1.89-7.76,3.43-11.74,5-.14.05-.09.24-.09.32-1.97.55-3.81,1.53-5.91,2.29.32-1.08,3.43-2.09,3.11-3.04l6.28-3c3.07-1.47,6.39-2,9.62-2.58Z"/>
      </g>
      <g>
        <path class="cls-7" d="M154.41,125.94c-4.28-1.45-6.86-2.34-11.66-1.01l-8.46,2.34c-.67.19-1.36.23-2.21.59.87.46,1.74.64,2.67,1.01l16.43,6.56c-.13.59-.21,1.21-.47,1.75l-9.18-3.24-7.57-3.28c-11.41-4.95-22.33-5.6-34.31-3.9-6.34.9-12.44,2.8-18.22,5.99l-8.38,4.62c-5.95,3.28-12.15,5.83-18.61,7.46l-42.66.12c-1.19,0-2.15-.14-3.17-.45-1.71-1.08-2.74-2.77-2.99-4.88l.02-89.67h148.94s-.17,76-.17,76Z"/>
        <g>
          <path class="cls-26" d="M123.35,55.82c.12,3.07-.07,6.22-.66,9.37-.7,3.7-4.43,3.55-7.07,3.89-2.37-2.35-5.05-4.03-7.99-5.07l-.07-7.72,6.38-.08,9.41-.39Z"/>
          <path class="cls-26" d="M99.57,55.82c.11,2.26-.26,4.32-.32,6.56-3.96.31-7.79,1.18-11.24,3.08-1.44.79-2.08,2.3-1.89,3.67-.14-.08-.2.21-.36.22l-2.11.03-.08-13.09,10.33-.18c1.98-.03,3.83-.37,5.67-.29Z"/>
          <path class="cls-26" d="M101.5,54.04s.04.1.04.18c-.53.76-1.39,1-1.97,1.6-1.84-.09-3.7.25-5.67.29l-10.33.18.08,13.09c0,1.24-.15,2.51,0,3.75-.8.04-1.62.13-2.53-.04v-19.08s20.38.02,20.38.02Z"/>
          <path class="cls-22" d="M115.62,69.08c2.64-.34,6.37-.19,7.07-3.89.59-3.15.78-6.3.66-9.37.21-.2,2.43-1.52,2.07-1.77.19,0,.29.19.29.36v16.65c-1.27.62-2.35,1.25-3.41,2.09h-4.16c-.87-1.24-1.42-2.98-2.52-4.07Z"/>
          <path class="cls-26" d="M125.42,54.05c.37.25-1.86,1.57-2.07,1.77l-9.41.39-6.38.08.07,7.72c-.77-.34-1.57-.55-2.48-.83l.03-9.16,20.24.03Z"/>
          <path class="cls-22" d="M99.24,62.38c.06-2.24.43-4.3.32-6.56.57-.6,1.43-.84,1.97-1.6,0-.08-.03-.16-.04-.18.32,0,.41.09.41.36l-.02,8.17c-.95.15-1.85-.25-2.64-.19Z"/>
          <g>
            <path class="cls-22" d="M35.64,73.17c-.07-1.28-.14-2.57,0-3.84l6.34-.15c1.88-.04,3.69-.18,5.51-.59s2.94-1.68,3.28-3.57c.55-3.07.79-6.18.63-9.2l2.21-1.6.2,18.98-18.17-.02Z"/>
            <path class="cls-26" d="M53.6,54.21l-2.21,1.6-5.13.3-10.73.18.11,13.04c-.15,1.27-.08,2.56,0,3.84-.78.03-1.56.07-2.49,0v-19.19s20.46.24,20.46.24Z"/>
            <path class="cls-26" d="M51.4,55.81c.16,3.03-.08,6.14-.63,9.2-.34,1.88-1.42,3.14-3.28,3.57s-3.63.55-5.51.59l-6.34.15-.11-13.04,10.73-.18,5.13-.3Z"/>
          </g>
          <g>
            <path class="cls-22" d="M59.58,73.16v-3.46c.08-.17.26-.18.21-.35l8.15-.29c2.87-.1,6.11-.53,6.79-3.63s.76-6.43.78-9.61c.22-.35,2.41-1.38,1.63-1.84.17,0,.68-.11.68.21v18.97s-18.24,0-18.24,0Z"/>
            <path class="cls-26" d="M77.13,53.99c.79.46-1.41,1.48-1.63,1.84-1.59-.07-3.19.26-4.91.28l-11.06.17.26,13.07c.06.17-.13.18-.22.35v3.46c-.78.03-1.57.07-2.48-.01l.02-19.12,20.01-.04Z"/>
            <path class="cls-26" d="M75.5,55.83c-.02,3.18-.07,6.39-.78,9.61s-3.92,3.53-6.79,3.63l-8.15.29-.26-13.07,11.06-.17c1.71-.03,3.32-.35,4.91-.28Z"/>
          </g>
          <g>
            <path class="cls-22" d="M35.46,95.72c.06-1.2.19-2.48.18-3.68,2.48.08,4.97-.11,7.57-.18,1.87-.05,3.69-.26,5.36-.99,1.27-.56,1.88-1.77,2.17-3.17.65-3.11.64-6.18.78-9.2.68-.55,1.35-1.18,2.11-1.6l.14,18.86-18.31-.03Z"/>
            <path class="cls-26" d="M53.63,76.89c-.76.42-1.43,1.05-2.11,1.6-1.36-.15-2.74.19-4.23.22l-11.76.27.11,13.05c.01,1.21-.12,2.48-.18,3.68-.72.05-1.47.12-2.32-.04v-19.05s20.49.26,20.49.26Z"/>
            <path class="cls-26" d="M51.52,78.49c-.14,3.03-.13,6.09-.78,9.2-.29,1.4-.91,2.61-2.17,3.17-1.67.74-3.49.94-5.36.99-2.6.07-5.09.26-7.57.18l-.11-13.05,11.76-.27c1.49-.03,2.87-.37,4.23-.22Z"/>
          </g>
          <g>
            <path class="cls-22" d="M29.88,99.75l.04,18.54-18.22-.02c-.17-1.19,0-2.41-.01-3.6l8.21-.33c3.15-.13,6.16-.49,6.9-3.75s.78-6.31.79-9.43c-.89.44,2.96-2.13,2.28-1.41Z"/>
            <path class="cls-26" d="M29.88,99.75c.68-.72-3.17,1.85-2.28,1.41l-9.73.31-6.23.11.05,13.08c0,1.19-.16,2.41.01,3.6-.93.02-1.74.1-2.62-.08l.07-18.84,20.63.02c.03.2.1.32.1.39Z"/>
            <path class="cls-26" d="M27.6,101.16c-.01,3.12-.08,6.29-.79,9.43s-3.75,3.62-6.9,3.75l-8.21.33-.05-13.08,6.23-.11,9.73-.31Z"/>
          </g>
          <g>
            <path class="cls-22" d="M29.89,77.07l.06,18.64H11.72c-.17-1.16-.01-2.34-.02-3.5l9.43-.46c1.38-.07,2.71-.36,3.92-1,2.89-1.52,2.38-9.52,2.59-12.26-.37.14,2.7-2.01,2.25-1.42Z"/>
            <path class="cls-26" d="M29.89,77.07c.45-.59-2.63,1.56-2.25,1.42-4.23.15-8.46.44-12.83.37-1.11-.02-2.13.04-3.2.13l.08,13.22c0,1.16-.15,2.34.02,3.5l-2.6-.02.03-19.02,20.66.03.08.37Z"/>
            <path class="cls-26" d="M27.64,78.49c-.22,2.74.29,10.74-2.59,12.26-1.21.64-2.54.93-3.92,1l-9.43.46-.08-13.22c1.07-.08,2.08-.14,3.2-.13,4.36.07,8.6-.22,12.83-.37Z"/>
          </g>
          <g>
            <path class="cls-2" d="M35.6,140.75c-.2-1.11,0-2.27,0-3.38,3.31-.05,6.64-.08,10.05-.43,1.32-.14,2.62-.42,3.68-1.23,2.26-1.74,1.92-9.51,2.23-12.04.65-.58,1.58-.9,1.85-1.74.19,0,.35.12.35.34v18.5s-18.16-.03-18.16-.03Z"/>
            <path class="cls-22" d="M53.41,121.94c-.28.84-1.21,1.16-1.85,1.74-1.58.17-3.17.36-4.88.39l-11.16.14.08,13.16c0,1.11-.2,2.26,0,3.38-.77,0-1.54.08-2.43,0v-18.88s20.24.07,20.24.07Z"/>
            <path class="cls-2" d="M51.56,123.68c-.31,2.52.03,10.3-2.23,12.04-1.06.81-2.36,1.09-3.68,1.23-3.41.35-6.74.38-10.05.43l-.08-13.16,11.16-.14c1.71-.02,3.3-.21,4.88-.39Z"/>
          </g>
          <g>
            <path class="cls-2" d="M59.57,118.21c-.23-1.14.25-2.44.16-3.52l7.8-.23c3.58-.1,6.77-.48,7.35-4.27.46-3.04.58-6.06.6-9.05.58-.68,1.67-.82,1.87-1.74.19-.08.27-.08.32,0s.15.23.15.4v18.48s-18.23-.08-18.23-.08Z"/>
            <path class="cls-22" d="M77.34,99.4c-.2.91-1.29,1.06-1.87,1.74l-4.88.32-11.06.12c.15,4.53-.18,8.84.2,13.11.1,1.07-.38,2.38-.16,3.52-.79.07-1.61.14-2.47-.03v-18.82s20.24.05,20.24.05Z"/>
            <path class="cls-2" d="M75.47,101.14c-.02,2.98-.14,6.01-.6,9.05-.58,3.79-3.76,4.17-7.35,4.27l-7.8.23c-.38-4.27-.05-8.58-.2-13.11l11.06-.12,4.88-.32Z"/>
          </g>
          <g>
            <path class="cls-2" d="M29.9,122.29l.04,18.49h-15.34c-1.24.01-2.48-.18-3.28-.97.31,1.4.3-2.87.3-2.42,3.2-.05,6.4-.13,9.7-.38,2.47-.19,4.94-.82,5.48-3.55.65-3.28.92-6.58.69-9.75l2.4-1.42Z"/>
            <path class="cls-22" d="M29.9,122.29l-2.4,1.42c-1.8.25-3.62.34-5.56.36l-10.34.14.03,13.18c0-.46,0,3.82-.3,2.42-1.24-.91-2.14-2.31-2.14-3.91l-.04-14h19.74c.42-.02,1.01-.04,1.02.39Z"/>
            <path class="cls-2" d="M27.5,123.71c.23,3.17-.05,6.47-.69,9.75-.54,2.73-3.01,3.36-5.48,3.55-3.3.25-6.5.33-9.7.38l-.03-13.18,10.34-.14c1.93-.03,3.76-.11,5.56-.36Z"/>
          </g>
          <g>
            <path class="cls-26" d="M149.47,54.02c.28.22-2.36,2.03-2.37,1.82-.47-.47-1-.01-1.51.03l-2.85.24c-3.19.27-6.31.24-9.4.12-.24,0-.94-.76-1.6-.05-.19.2-.1.47-.1.73l.04,12.41c-.78.39-1.68.27-2.65.56v-15.87s20.44.01,20.44.01Z"/>
            <path class="cls-2" d="M145.63,71.32l.17-.55c.35.21,1.33-.27,1.04-.81-.45-.84-1.19-1.66-1.84-2.28,1.95.7,2.94-10.95,2.05-10.78.17-.32.38-.72.06-1.05.01.21,2.64-1.61,2.37-1.82.16,0,.36,0,.41.11.06.13.06.29.06.49v18.5c-.47.03-1.07.24-1.47-.01l-2.84-1.8Z"/>
            <g>
              <path class="cls-7" d="M147.1,55.85c.32.32.11.72-.06,1.05l-6.5,6.49,4.45,4.29c.64.62,1.39,1.44,1.84,2.28.29.54-.69,1.01-1.04.81l-6.54-6.22-4.25,4.2c.01-.1-.09-.27.02-.39,1.09-1.1,2.14-2.09,3.22-3.31-.25-.41-.64-.62-.64-1-.03-.23.32-.37.44-.67l-6.42-6.46c0-.27-.09-.53.1-.73.66-.71,1.36.04,1.6.05l5.97,6.02,6.29-6.38c.51-.04,1.04-.51,1.51-.03Z"/>
              <path class="cls-22" d="M137.62,64.05l-5.94,5.27-.04-12.41,6.42,6.46c-.12.3-.47.44-.44.67Z"/>
              <path class="cls-21" d="M145.79,70.77l-.17.55c-3.51-2.23-10.78-2.17-10.73-2.43,0-.05.1-.08.11-.13l4.25-4.2,6.54,6.22Z"/>
              <path class="cls-22" d="M145.59,55.88l-6.29,6.38-5.97-6.02c3.09.12,6.21.14,9.4-.12l2.85-.24Z"/>
              <path class="cls-22" d="M145,67.68l-4.45-4.29,6.5-6.49c.9-.17-.1,11.48-2.05,10.78Z"/>
            </g>
          </g>
          <g>
            <path class="cls-2" d="M75.51,123.72l-.17,4.07c-.05,1.22-.11,2.38-.39,3.46-3.6,2.68-7.58,4.54-11.68,6.18l-3.5,1.39c.02-.17-.21-.14-.21-.39v-14.23s8.58-.09,8.58-.09c2.54-.03,4.95-.12,7.36-.39Z"/>
            <path class="cls-22" d="M77.15,121.92c.35.81-1.32,1.26-1.64,1.8-2.41.27-4.82.37-7.36.39l-8.57.09v14.23c-.01.25.22.22.2.39-.93.26-1.69.65-2.66.85l-.02-17.75h20.06Z"/>
            <path class="cls-2" d="M92.47,101.62c-2.42,4.17-4.71,8.38-6,13.05l-.35-.16-2.47.03-.07-12.93h8.9Z"/>
            <path class="cls-22" d="M92.47,101.62h-8.9s.07,12.92.07,12.92c0,1.22-.18,2.46-.01,3.67-.76.06-1.52.07-2.51,0v-18.86s10.88-.04,10.88-.04c.66,0,1.38-.16,2.04.09-.31.88-1.14,1.48-1.56,2.2Z"/>
            <path class="cls-2" d="M107.61,118.19c-.28-1.19.27-2.56.17-3.68,1.51.07,3.11.26,4.53-.18,1.65.58,3.3.61,5.16,0-.62,1.38-1.08,2.54-1.43,3.96-2.86-.04-5.66.09-8.43-.1Z"/>
            <path class="cls-22" d="M83.65,73.14c-.16-1.25,0-2.51,0-3.75l2.11-.03c.16,0,.22-.29.36-.22.24,1.67,1.44,2.61,3.1,2.69.42.02,3.31.46,3.01,1.06-.04.09-.14.27-.37.27l-8.21-.02Z"/>
            <path class="cls-4" d="M74.95,131.25c.28-1.08.34-2.24.39-3.46l.17-4.07c.33-.54,1.99-.99,1.64-1.8.29,0,.52-.11.57.07.05.15.08.3.08.49l-.02,7.18c-.8.77-2.02.99-2.83,1.59Z"/>
            <path class="cls-4" d="M86.47,114.67l-.98,3.52c-.65.12-1.29.09-1.86.03-.16-1.22.02-2.46.01-3.67l2.47-.03.35.16Z"/>
            <g>
              <path class="cls-2" d="M149.25,81.13c-2.55-.66-5.13-1.19-7.68-1.55.96,1.11,1.73,2.04,2.35,3.34-2.25-.76-4.37-.6-6.41-1.1-1.86-.45-3.37-1.89-5.39-2.22.96,1.14,2.13,2.05,2.82,3.23l-3.24-.82s.05-.35-.06-.43c-.68.22-1.49-.35-2.17-.37-1.98-.06-5.19-.29-6.53,1.15l-4.88,1.66c.85-1.88,1.7-3.71,3.02-5.07.02.18.27.06.42-.03,1.54-.91,2.98-1.84,4.67-2.5s3.48-.69,5.3-1.01c2.81-.5,5.48-.66,8.29-.2-.61-1.18-1.73-1.2-2.66-1.3l-2.28-.23c.51-.63,1.19-.17,1.66-.14,4.96.28,9.17,2.98,12.45,6.75.24.27.33.54.31.82Z"/>
              <path class="cls-22" d="M123.51,85.53c-.08.1-.12.64.1.69,2.13.46,4.3.92,6.18,2.2,2.45,1.67,4.31,3.82,6.3,5.98,2.16,2.35,3.66,4.95,4.67,8.04.16.49.14.73-.24,1l-3.47-3.95c-.47,1.39-.44,2.57-.45,4-1.43-1.81-3.87-2.47-4.86-4.71l-2.43-5.51c-.14-.31.11-.99-.52-1.32-.04.79.07,1.51-.01,2.3l-.21,2.09c-.58-3.23-2.54-6.13-5.42-7.91-.32-.01-.56.2-.2.46-.25.13-.48,0-.43.26-1-1.09-2.58-1.68-3.85-2.79,1.5-.43,3.23-.7,4.85-.81Z"/>
              <path class="cls-22" d="M110.44,82.42c-.82,1.07-1.95,1.83-3.19,2.52-2.17,1.21-4.24,2.42-6.14,4.1-.23.21-.53.02-.6-.05.26-.81.35-1.75.3-2.81-1.09,1.06-3.02,4.85-4.25,5.58-2.02,1.2-4.6,1.7-5.92,3.11.6-1.41,1.15-2.68.99-4.25-2.16.99-3.96,2.41-5.9,3.59-.02-1.58,4.55-5.79,6.06-6.75l4.9-3.1c4.24-2.68,9.15-3.13,13.74-1.96Z"/>
              <path class="cls-22" d="M95.74,66.44c-.92.31,3.62.19,3.67.19,1.93,0,3.63.53,5.25,1.52.97.59,2,.99,2.99,1.49,5.31,2.7,5.38,5.56,8.87,9.43.1-.06.15-.1.2-.09.09.4.18.78.24,1.19-1.41,1.02-3.94-1.36-5.36-2.36-.28-.2-.33-.46-.15-.79l-3.18-.85c.13-.4.54-.12.79-.52l-6.41-.76c.08-.45.06-.72.05-1.02.17-.17.45-.45.61-.66.04.03,1.48-.49,2.09-1.6.08-.14.44-.13.38-.35-.17-.63-3.83.21-4.74.03.02-.37.26-.34.28-.44.05-.22-.18-.45-.41-.44-1.37.05-4.25-1.2-5.55-1.86-1.09-.55-2.37-.4-3.31-1.03,1.16-.64,2.47-.76,3.7-1.08Z"/>
              <path class="cls-26" d="M111.7,82.59s-.06.25-.11.22c-1.03-.73-1.05-.36-1.15-.39-4.6-1.17-9.5-.72-13.74,1.96l-4.9,3.1c-1.51.96-6.09,5.16-6.06,6.75-.82.5-1.43,1.52-2.41,1.84.08-.88.58-1.67,1.06-2.47l2.96-4.88c3.09-5.11,9.58-5.89,14.07-8.27-.78-.55-1.55-.25-2.31-.14-1.19.16-2.34.27-3.4.85-1.41.77-5.85,2.9-7.04,4.04-.52.5-1.03.79-1.67.87,6.53-7.61,16.46-8.12,24.72-3.46Z"/>
              <path class="cls-26" d="M141.12,93.65c-.13-.03-.25.06-.18.2.04.08.08.2-.09.42-1.68-2.23-3.78-3.95-6.22-5.36-.56-.33-4.01-2.82-4.44-1.76,1.24.94,2.44,1.72,3.7,2.48,1.11.67,2,1.5,3,2.32,1.67,1.36,2.99,2.91,3.85,4.92,1.37,3.21,2.19,6.57,2.79,10.07.05.31-.28.6-.17.84l-2.86-4.35c.38-.27.4-.51.24-1-1.02-3.08-2.51-5.68-4.67-8.04-1.99-2.16-3.85-4.32-6.3-5.98-1.87-1.28-4.05-1.74-6.18-2.2-.22-.05-.18-.59-.1-.69,7.64-.49,13.2,1.88,17.61,8.12Z"/>
              <path class="cls-22" d="M119.61,89.18c-.2-.07-.41.06-.49.2-.1.16-.1.48.02.67,2.6,3.86,2.4,10.14.56,14.28-.34.77-3.29,4.79-4.05,4.42l1.46-3.96c-1.1.06-1.99.47-2.91.97,1.06-1.48,1.27-2.51,1.92-4.19.9-2.31,1.85-1.95,2.99-3.68-1.35-.1-2.28.82-3.55,1.31.08-.65.51-1.07.72-1.61,1.41-3.61,1.39-7.36.51-11.2,1.49.67,1.91,2.04,2.82,2.78Z"/>
              <path class="cls-22" d="M149.25,81.13c.02-.28-.07-.55-.31-.82-3.28-3.77-7.49-6.48-12.45-6.75-.47-.03-1.15-.49-1.66.14l2.28.23c.92.09,2.04.12,2.66,1.3-2.81-.46-5.47-.29-8.29.2-1.82.32-3.57.33-5.3,1.01s-3.14,1.59-4.67,2.5c-.15.09-.4.21-.42.03,3.92-5.1,9.58-6.88,15.96-6.53s11.92,3.77,14.82,9.31c-1.11.06-1.83-.41-2.62-.61Z"/>
              <path class="cls-2" d="M112.26,101.44c-.45,2.37-2.29,3.84-.26,6.59-1.2,2.24-2.3,4.57.31,6.3-1.42.43-3.03.25-4.53.18-.36-4.24-.11-8.56-.16-12.98l4.64-.09Z"/>
              <path class="cls-22" d="M112.26,101.44l-4.64.09c.05,4.42-.2,8.75.16,12.98.1,1.12-.45,2.49-.17,3.68-.71-.05-1.42.19-2.39.03l.06-12.09c.01-2.54,1.29-4.9,2.9-6.71h4.3c.04.73-.1,1.38-.22,2.02Z"/>
              <path class="cls-26" d="M90.24,78.94l-6.66.02.09,5.46c-.93,1.43-1.87,2.71-2.57,4.33v-12.09s14.04.1,14.04.1l-4.9,2.18Z"/>
              <path class="cls-4" d="M144.43,91.83c3.34-1.03,2.48-5.79,3.21-8.2.6.16,1.76.51,2.27.98v11.08s-3.37.03-3.37.03l-2.11-3.89Z"/>
              <path class="cls-26" d="M83.32,96.06c-.32.44-.8.79-1.32,1.24.21-4.4,2.31-8.13,4.98-11.25.64-.08,1.15-.37,1.67-.87,1.19-1.14,5.64-3.26,7.04-4.04,1.06-.58,2.22-.69,3.4-.85.76-.1,1.53-.4,2.31.14-4.49,2.38-10.98,3.16-14.07,8.27l-2.96,4.88c-.48.8-.98,1.59-1.06,2.47Z"/>
              <path class="cls-26" d="M141.12,93.65c3.13,4.42,4.19,9.98,2.88,15.55-.26-.39-.38-1.02-.64-1.42-.12-.24.22-.53.17-.84-.6-3.5-1.41-6.87-2.79-10.07-.86-2.01-2.18-3.56-3.85-4.92-1-.82-1.88-1.65-3-2.32-1.26-.76-2.46-1.53-3.7-2.48.43-1.06,3.88,1.43,4.44,1.76,2.44,1.42,4.54,3.13,6.22,5.36.17-.22.13-.34.09-.42-.07-.15.05-.23.18-.2Z"/>
              <path class="cls-26" d="M116.72,78.98s-.1.02-.2.09c-3.48-3.87-3.56-6.73-8.87-9.43-.99-.5-2.02-.9-2.99-1.49-1.62-.99-3.32-1.53-5.25-1.52-.05,0-4.59.12-3.67-.19,6.32-1.63,13.25.28,17.74,5.36,1.85,2.09,2.7,4.65,3.24,7.19Z"/>
              <path class="cls-26" d="M119.61,89.18c2.05,1.67,3.28,3.98,3.91,6.5l-.71-.18c-.24-.06.11-.57-.25-.63-.06,3.28-.35,6.49-1.46,9.6-.81,2.26-2.55,3.83-4.35,5.26-.31.25-.34.74-.84.8-.2.02-.43.14-.29.36-.26.39-.9.54-1.37.54l1.39-2.69c.76.37,3.71-3.65,4.05-4.42,1.84-4.15,2.04-10.42-.56-14.28-.12-.18-.12-.51-.02-.67.09-.14.3-.27.49-.2Z"/>
              <path class="cls-22" d="M92.04,67.52c.94.63,2.22.48,3.31,1.03,1.31.66,4.18,1.91,5.55,1.86.24,0,.47.23.41.44-.02.1-.26.06-.28.44.91.18,4.57-.66,4.74-.03.06.22-.3.21-.38.35-.61,1.11-2.05,1.63-2.09,1.6-.33-.23-.76-.15-1.23-.08l-5.13.72c-.68-.79-1.26-1.44-2.1-2.08.6-.65,1.27-.84,1.78-1.53-2.7-.61-3.86-1.39-6.65-1.76.55-.71,1.45-.63,2.07-.97Z"/>
              <path class="cls-2" d="M147.64,83.64c-.73,2.41.13,7.17-3.21,8.2-2.01-2.53-4.26-4.68-7.04-6.34,2.1.13,3.97.3,5.98.57,1.74.23,3.1-.91,3.49-2.6.22-.15.6.13.78.18Z"/>
              <path class="cls-22" d="M111.7,82.59c1.49.55,2.72,1.52,4.4,2.4-6.59.76-11.47,2.22-16.63,7.23l1.04-3.22c.07.07.36.26.6.05,1.9-1.69,3.97-2.89,6.14-4.1,1.24-.69,2.37-1.45,3.19-2.52.1.03.13-.35,1.15.39.05.04.15-.18.11-.22Z"/>
              <path class="cls-22" d="M116.96,80.17c.17,1.15.28,2.31.25,3.47-.61-.13.17-1.19-1.36-2.15-.24-.15-1.97-1.43-2.42-1.37-.23.03-.09.4-.18.57-3.2-2.77-7.22-4.11-11.55-3.94l-1.67-1.2,2.67-1.69c.01.3.03.57-.05,1.02l6.41.76c-.25.39-.66.11-.79.52l3.18.85c-.19.33-.13.59.15.79,1.43,1,3.95,3.38,5.36,2.36Z"/>
              <path class="cls-26" d="M123.51,95.68c1.54,6.2-1.93,13.03-7.89,15.22-.15-.22.08-.34.29-.36.49-.06.53-.55.84-.8,1.8-1.43,3.53-3,4.35-5.26,1.12-3.11,1.41-6.32,1.46-9.6.36.06.01.57.25.63l.71.18Z"/>
              <path class="cls-2" d="M90.24,78.94c-2.41,1.63-4.55,3.44-6.57,5.48l-.09-5.46,6.66-.02Z"/>
              <path class="cls-22" d="M129.29,93.26c-.15-.05-.26.19-.27.4l-.18,5.6c-.73-1.03-1.06-2.11-1.58-3.24-1.2-2.6-2.88-4.85-4.76-6.89-.06-.27.17-.12.43-.26-.36-.26-.12-.47.2-.46,2.88,1.78,4.84,4.69,5.42,7.91l.21-2.09c.08-.79-.03-1.5.01-2.3.62.33.38,1.01.52,1.32Z"/>
              <path class="cls-25" d="M149.79,104.9v7.15c-.01.19-.26.52-.4.44-.66-.36-1.04-1-1.65-1.69.76-1.97,1.03-3.93,1.14-5.91.3-.02.61.07.91.01Z"/>
              <path class="cls-18" d="M149.79,104.9c-.3.06-.6-.03-.91-.01,0-1.82-.3-3.46-.66-5.25.6-.02,1.02-.09,1.55-.39.13,1.94.01,3.78.01,5.65Z"/>
              <path class="cls-4" d="M131.71,82.02c-2.93-.74-6.01-.58-8.76.35,1.34-1.43,4.56-1.21,6.53-1.15.67.02,1.49.59,2.17.37.11.08.11.38.06.43Z"/>
              <path class="cls-22" d="M117.22,83.64c.12.03-.06.43-.15.35l-3.82-3.3c.09-.18-.04-.54.18-.57.45-.06,2.19,1.22,2.42,1.37,1.53.96.75,2.02,1.36,2.15Z"/>
            </g>
            <path class="cls-22" d="M81.38,126.78c0,.49.26,1.01-.33,1.23-.09-.45.02-.82.03-1.23l.06-4.69c0-.38,1.12-.33,1.05.13-.23,1.61-.8,3.05-.81,4.56Z"/>
            <g>
              <path class="cls-8" d="M107.53,91.45c-.1.33.34.39.24.66-.15.38-.59.2-.78.36-1.54,1.31-2.64,2.9-3.9,4.26l-2.42,2.6c-1.2,1.29-2.21,2.74-2.7,4.35-.73-.03-1.53.16-2.38.29.6.77,1.27.02,1.75.48-1.15,1.77-2.14,3.66-2.99,5.59-.79.56-1.89.57-2.82.72,3.22-7.55,8.86-15.09,16.01-19.31Z"/>
              <path class="cls-14" d="M108.21,93.25c-2.47,3.09-4.42,6.64-6.14,10.25-1.37.15-2.75.24-4.12.19.49-1.61,1.5-3.06,2.7-4.35l2.42-2.6c.16.34-.19.71.3,1.27l3.49-3.94c1.59-.77.48-.83,1.34-.82Z"/>
              <path class="cls-14" d="M101.65,104.27c-.67,1.74-.91,3.54-1.84,4.98-1.84.18-3.64.93-5.47.8.85-1.93,1.84-3.82,2.99-5.59,1.37-.47,2.89-.11,4.33-.19Z"/>
              <path class="cls-14" d="M95.5,117.63c-.21,2.11-1.26,4.12-1.39,6.04l-4.13,1.04c.28-2.27.9-4.51,1.43-6.73,1.35-.25,2.72-.3,4.09-.36Z"/>
              <path class="cls-24" d="M98.65,117.77c.05,1.63.13,3.28.46,5.01l-5,.89c.14-1.92,1.18-3.93,1.39-6.04l2.93-.11c.17,0,.17.2.21.26Z"/>
              <path class="cls-24" d="M99.8,110.02c-.49,2.17-.91,4.38-1.17,6.59-1.23.2-2.47.44-3.72.49-.11-.9,1.03-.18,1.28-1.38.33-1.54,1.34-4.73.58-5.5l2.81-.48c.16-.03.22.16.23.27Z"/>
              <path class="cls-8" d="M91.41,117.98c-.53,2.22-1.15,4.46-1.43,6.73l-2.52.81c.48-2.55,1.1-5.05,1.75-7.52.7-.21,1.52.11,2.21-.02Z"/>
              <path class="cls-8" d="M93.67,111c-.9,1.98-1.41,4.1-1.98,6.19-.73.39-1.61.45-2.42.52.61-2.35,1.15-4.61,2.17-6.67.73.05,1.53-.19,2.23-.04Z"/>
              <path class="cls-3" d="M108.21,93.25c-.87,0,.25.05-1.34.82l-3.49,3.94c-.49-.56-.14-.94-.3-1.27,1.26-1.36,2.36-2.95,3.9-4.26.19-.17.63.02.78-.36.11-.27-.33-.33-.24-.66,1.74-1.26,3.49-2.18,5.4-3.11-1.7,1.64-3.31,3.15-4.71,4.91Z"/>
              <path class="cls-6" d="M98.65,117.77c-.04-.06-.05-.27-.21-.26l-2.93.11c-1.37.05-2.74.11-4.09.36-.69.13-1.51-.19-2.21.02l.08-.29c.8-.07,1.68-.13,2.42-.52,1.03.27,2.15-.05,3.22-.09,1.25-.05,2.5-.29,3.72-.49-.04.35,0,.84.02,1.16Z"/>
              <path class="cls-19" d="M99.81,109.25c.03.22.25.24.23.45-.01.17-.02.39-.25.32,0-.11-.06-.3-.23-.27l-2.81.48c-1.05.18-2.16.31-3.09.78-.7-.15-1.5.09-2.23.04.02-.15.06-.23.08-.28.93-.15,2.02-.16,2.82-.72,1.83.14,3.63-.61,5.47-.8Z"/>
              <path class="cls-19" d="M102.08,103.5c-.11.23-.24.59-.42.77-1.44.08-2.96-.29-4.33.19-.48-.46-1.14.29-1.75-.48.85-.13,1.65-.31,2.38-.29,1.37.05,2.75-.04,4.12-.19Z"/>
              <g>
                <path class="cls-10" d="M143.35,111.39c-.51,0-.64.51-.84.87-.31.54.09.82.25,1.21.02.29.26,9.04,1.22,7.84,0,.4.06.81.18,1.19l-6.85,2.11c-2.69.82-4.93,1.6-7.98,2.1-2.26-.79-6.58-2.02-8.83-2.55.03-.16-.18-.2-.14-.28.04-.09.07-.25.09-.39,1.47-8.35,7.79-13.47,16.54-14.2-3.48-.9-7-.35-10.22,1.25-2.64,1.31-4.55,3.38-5.73,6-.42.02-.38-.49-.73-.56,1.65-3.86,4.96-6.51,8.93-7.74,5.19-1.61,10.36-.34,14.11,3.16Z"/>
                <path class="cls-10" d="M143.35,111.39c2.97,2.77,5.04,6.39,5.12,10.71-1.37.22-3.04,0-4.32.39-.12-.38-.18-.79-.18-1.19.02-2.64-.23-5.42-1.22-7.84-.16-.39-.56-.67-.25-1.21.2-.35.33-.86.84-.87Z"/>
                <path class="cls-20" d="M121.03,116.53c-1.01,2.23-1.36,4.81-1,7.33.56.12-.06-.6.41-.38-.02.14-.05.29-.09.39-.04.08.17.12.14.28-.41-.1-1.38.06-1.68-.4-.24-2.77.31-5.46,1.49-7.78.35.08.31.59.73.56Z"/>
                <path class="cls-20" d="M120.44,123.48c-.46-.22.16.5-.41.38-.36-2.52-.01-5.09,1-7.33,1.18-2.62,3.09-4.69,5.73-6,3.21-1.6,6.74-2.15,10.22-1.25-8.75.72-15.07,5.84-16.54,14.2Z"/>
                <path class="cls-20" d="M143.97,121.31c-.95,1.2-1.19-7.55-1.22-7.84.99,2.42,1.24,5.2,1.22,7.84Z"/>
              </g>
              <path class="cls-14" d="M96.77,110.22c.76.77-.25,3.96-.58,5.5-.25,1.2-1.39.48-1.28,1.38-1.07.04-2.19.36-3.22.09.58-2.09,1.08-4.21,1.98-6.19.93-.47,2.05-.6,3.09-.78Z"/>
            </g>
          </g>
          <g>
            <path class="cls-22" d="M35.62,118.27c-.26-1.23.09-2.54.02-3.75.94.06,1.98.24,2.84-.19.54.65,1.67.92,2.46,1.19.52.18,1.17.57,1.87.58,3.2.05,6.13-1.73,7.6-4.47.74-1.39,1.09-3.05.61-4.7-.05-.19.06-.53-.05-.8.49-1.58.46-3.28.41-4.94.67-.41,1.47-.94,1.99-1.53-.15-.14-.29-.07-.4-.08-.14-.02-.27-.07-.18-.22.31,0,.65-.04.96.14v18.77s-18.13-.02-18.13-.02Z"/>
            <path class="cls-26" d="M52.8,99.37c-.09.15.04.21.18.22.11.01.24-.06.4.08-.52.59-1.32,1.12-1.99,1.53l-3.84.26c-.62-.01-1.06-.57-1.71-.74-2.22-.6-4.47-.13-6.52,1.06.41-.38-3.5-.2-3.77-.1l-.06,5.06c-.03,2.66.02,5.24.17,7.78.07,1.21-.29,2.52-.02,3.75h-2.45s0-18.9,0-18.9h19.63Z"/>
            <path class="cls-22" d="M39.31,101.78c-1.61.94-3.27,3.37-3.26,5.16v2.03c.02,2.03,1.14,3.8,2.44,5.36-.85.42-1.9.25-2.84.19-.14-2.53-.2-5.11-.17-7.78l.06-5.06c.27-.11,4.18-.29,3.77.1Z"/>
            <path class="cls-22" d="M51.37,101.2c.06,1.66.08,3.35-.41,4.94-.64-1.54-1.21-3.29-2.9-4.09-.22-.1-.34-.36-.54-.58l3.84-.26Z"/>
            <g>
              <path class="cls-10" d="M47.53,101.46c.2.23.32.48.54.58-.37.48-.07.95.15,1.49,1.44,3.39,1.56,6.81-1.48,9.4-1.69,1.44-3.66,2.42-5.8,2.59-.79-.27-1.91-.54-2.46-1.19-1.29-1.56-2.42-3.34-2.43-5.36.36-.08.08.52.51.67.91-5.24,3.59-7.3,8.52-8.17-5.21-1.18-7.26,2-9.05,5.47,0-1.79,1.65-4.22,3.26-5.16,2.04-1.19,4.29-1.66,6.52-1.06.64.17,1.09.73,1.71.74Z"/>
              <path class="cls-13" d="M50.97,106.14c.11.27,0,.62.05.8l-.11,2.78c-.03.71-.45,1.3-.5,1.92-1.46,2.74-4.4,4.52-7.6,4.47-.7-.01-1.35-.41-1.87-.58,2.14-.17,4.11-1.15,5.8-2.59,3.04-2.59,2.92-6.01,1.48-9.4-.23-.53-.52-1.01-.15-1.49,1.69.81,2.26,2.55,2.9,4.09Z"/>
              <path class="cls-12" d="M50.41,111.64c.05-.62.48-1.21.5-1.92l.11-2.78c.48,1.65.13,3.31-.61,4.7Z"/>
              <path class="cls-20" d="M36.06,108.97v-2.03c1.77-3.47,3.82-6.65,9.04-5.47-4.93.87-7.62,2.93-8.52,8.17-.43-.15-.15-.74-.51-.67Z"/>
            </g>
          </g>
          <g>
            <path class="cls-22" d="M11.71,73.14c-.16-1.26,0-2.54,0-3.8l1.65.03c.34,0,.59-.06.77-.24.45.57,1.07.85,1.67,1.2,2.87,1.71,6.92,1.11,9.11-1.48l1.14-1.35c1.02-1.21,1.35-2.7,1.22-4.31-.04-.54,0-1.1-.15-1.63.13-.03.29-.18.3-.41l.22-5.35c.55-.61,1.41-.84,1.95-1.58,0-.09-.04-.17-.05-.2.3,0,.39.12.39.39v18.76s-18.22-.03-18.22-.03Z"/>
            <path class="cls-26" d="M29.55,54.02s.04.1.05.2c-.55.74-1.4.97-1.95,1.58-1.54,0-3.14.11-4.64.42-2.17-1.09-4.76-1.1-6.97,0l-4.33.03c-.04.29-.22,5.31.19,4.71-.05.18.12.37-.23.48-.07.98.24,2.02.08,2.98-.26,1.61-.02,3.28-.02,4.92,0,1.26-.17,2.53,0,3.8-.81.03-1.61.08-2.58-.03l.02-19.1h20.39Z"/>
            <path class="cls-22" d="M27.64,55.81l-.22,5.35c0,.23-.17.39-.3.41-.44-1.67-1.31-3.21-2.78-4.11-.49-.3-.91-.9-1.34-1.23,1.5-.31,3.1-.43,4.64-.42Z"/>
            <path class="cls-22" d="M14.13,69.13c-.18.18-.42.24-.77.24l-1.65-.03c0-1.64-.24-3.3.02-4.92.54,1.7,1.27,3.3,2.39,4.71Z"/>
            <path class="cls-26" d="M16.03,56.22c-1.02.51-2.23,1.45-2.8,2.44l-1.34,2.3c-.41.6-.22-4.42-.19-4.71l4.33-.03Z"/>
            <g>
              <path class="cls-11" d="M27.12,61.57c.14.53.11,1.09.15,1.63-.01-.02-.21,0-.2.04.11,1.58-.52,2.9-1.02,4.27l-1.14,1.35c-2.19,2.59-6.24,3.19-9.11,1.48,3.65.42,8.21-2.6,9.08-6.48.4-1.8.1-3.62-.49-5.38-.13-.38-.3-.72-.05-1.01,1.47.9,2.33,2.44,2.78,4.11Z"/>
              <path class="cls-16" d="M26.05,67.51c.5-1.37,1.13-2.69,1.02-4.27,0-.04.19-.06.2-.04.13,1.61-.2,3.1-1.22,4.31Z"/>
              <g>
                <path class="cls-10" d="M23,56.23c.44.33.86.94,1.34,1.23-.25.29-.08.63.05,1.01.59,1.76.9,3.59.49,5.38-.87,3.88-5.43,6.9-9.08,6.48-.59-.35-1.22-.64-1.67-1.2-1.13-1.41-1.86-3.01-2.39-4.71.16-.96-.16-2-.08-2.98.35-.1.18-.3.23-.48l1.34-2.3c.58-.99,1.78-1.93,2.8-2.44,2.21-1.09,4.8-1.09,6.97,0Z"/>
                <path class="cls-20" d="M12.53,64.69c-.52-.56-.63-1.34-.51-2.04.4-2.32,1.64-4.46,3.77-5.56,1.71-.88,3.52-1.4,5.43-.82-5.13,1.19-7.5,3.08-8.69,8.41Z"/>
              </g>
            </g>
          </g>
          <g>
            <path class="cls-22" d="M59.58,95.72l.06-3.73c.81,0,1.64.11,2.41-.16.69.83,2.11,1.21,3.01,1.63,2.48,1.18,5.28.2,7.39-1.41,1.46-1.11,2.66-2.41,2.92-4.59.41-3.39-.43-2.74-.23-4.65.15-1.42.3-2.89.2-4.33.13-.11,2.29-1.41,1.9-1.56-.14-.05-.42-.02-.32-.25.22,0,.87-.13.87.22l.02,18.82h-18.23Z"/>
            <path class="cls-26" d="M76.92,76.68c-.1.23.18.19.32.25.39.15-1.77,1.45-1.9,1.56l-3.67.33c-.17.02-.35.17-.26.29-2.27-1.02-4.91-1.55-7.01-.12-.15.07-.44.07-.59.15-.04-.02-.08-.07-.1-.21l-4.1.07-.03,5.24c0,.18.25.31.17.43-.15.84.21,1.82,0,2.65-.39,1.51-.09,3.11-.12,4.68l-.06,3.73c-.89.03-1.54.12-2.53-.04l.32-18.99h19.55Z"/>
            <path class="cls-22" d="M75.34,78.48c.09,1.44-.05,2.91-.2,4.33-.12-.02-.28,0-.24.16-.2-1.03-1.45-1.94-2.11-2.59-.41-.41-.93-.93-1.38-1.28-.09-.12.09-.28.26-.29l3.67-.33Z"/>
            <path class="cls-22" d="M60.15,88.15c.34,1.28,1.01,2.63,1.89,3.68-.77.27-1.6.16-2.41.16.02-1.57-.27-3.17.12-4.68l.4.83Z"/>
            <path class="cls-22" d="M63.81,79.14c-1.53.84-2.66,1.97-3.39,3.7-.26.62-.55,1.24-.66,1.83.08-.12-.18-.25-.17-.43l.03-5.24,4.1-.07c.01.14.05.19.1.21Z"/>
            <g>
              <path class="cls-10" d="M71.41,79.11c.45.35.97.88,1.38,1.28-.26.01-.48.45-.38.82,1.05,3.59,1.09,7-1.97,9.63-1.57,1.35-3.48,2.16-5.39,2.62-.9-.43-2.32-.81-3.01-1.63-.88-1.05-1.55-2.4-1.89-3.68.1-.11-.13-.5-.03-.56l.46-.28c.49-.3-.42-6.17,8.39-8.36-1.48,0-3.21-.27-4.51.4.02-.15-.24-.23-.06-.38,2.1-1.44,4.74-.91,7.01.12Z"/>
              <path class="cls-11" d="M74.9,82.98c.72,3.73.28,6.34-2.46,9.08-2.11,1.61-4.91,2.59-7.39,1.41,1.91-.46,3.82-1.27,5.39-2.62,3.06-2.63,3.02-6.04,1.97-9.63-.11-.37.11-.81.38-.82.66.65,1.91,1.55,2.11,2.59Z"/>
              <path class="cls-23" d="M72.44,92.06c2.74-2.74,3.18-5.35,2.46-9.08-.04-.17.12-.18.24-.16-.2,1.91.64,1.26.23,4.65-.27,2.18-1.47,3.48-2.92,4.59Z"/>
              <path class="cls-20" d="M64.4,78.99c-.18.15.08.23.06.38-2.56,1.33-5.06,4.94-3.88,7.95l-.46.28c-.1.06.13.45.03.56l-.4-.83c.22-.83-.14-1.81,0-2.65.11-.59.4-1.21.66-1.83.73-1.73,1.87-2.86,3.39-3.7.15-.08.44-.08.59-.15Z"/>
              <path class="cls-20" d="M60.58,87.32c-1.18-3.02,1.32-6.63,3.88-7.95,1.3-.67,3.03-.41,4.51-.4-8.81,2.19-7.89,8.06-8.39,8.36Z"/>
            </g>
          </g>
        </g>
      </g>
    </g>
    <path class="cls-7" d="M125.52,13.51c-1.79-2.57-4.82-3.65-7.89-3.74-5.08-.14-9.43,3.38-9.57,8.44l-.12,4.49-.03,3.92c.2,1.22.06,2.26.03,3.28,0,.15.05.27.05.42.34-.3.4-.95.21-1.4l.93-.09c-.18.02,3.1-1.42,3.39-1.19.46,1.62-.2,3.53.55,4.78.1.17-.04.38.13.54.13.11.29.35.52.22-.94-1.47-.78-3.29-.77-5.13l.03-9.97c0-2,.95-3.2,2.33-4.1,1.44-.94,2.95-1.06,4.53-.23,1.5.78,2.7,2.12,2.73,4.05l.12,9.03c.44-.07.79.15,1.2.34l3.39,1.6c-.37,1.98.16,3.78.13,5.42l.05-7.59.05-3.9c-.49-3.76.39-5.76-2-9.17Z"/>
    <path class="cls-25" d="M107.92,26.62l.03-3.92h-54.87c-.07.01-.13,0-.19-.01-.1-.03-.18-.08-.25-.15v4.08s55.28,0,55.28,0Z"/>
    <path class="cls-7" d="M52.63,22.54c-.53-.57-.08-2.46-.29-4.46-.42-4-3.31-7.35-7.37-8.1-3.55-.66-7.16.06-9.61,2.82-1.98,2.23-2.65,4.98-2.46,7.88.05.69.04,1.36-.15,2.01l.09,3.93.04,2.23c1.06.16,2.06-.11,3.16-.38.46-.11.96.05,1.56-.33.25.79-.29,4.48.9,4.42-.61-1.19-.6-2.48-.58-3.9l.11-11.25c.02-1.69,1.16-2.64,2.27-3.43,1.43-1.02,3.01-1.05,4.56-.2,2.54,1.39,2.92,2.91,2.89,5.88.31-.17.84.42.86.84.14,4.21,3.52,5.22,3.53,6.13l.09,7.35c0,.18.07.24.17.2l.15-.69c.25-1.17.05-2.38.12-3.55.06-1.05-.22-2.15-.04-3.32v-4.08Z"/>
  </g>
</svg>